<?xml version="1.0" encoding="utf-8"?>
<!-- Generator: Adobe Illustrator 22.1.0, SVG Export Plug-In . SVG Version: 6.00 Build 0)  -->
<svg version="1.1" id="Layer_1" xmlns="http://www.w3.org/2000/svg" xmlns:xlink="http://www.w3.org/1999/xlink" x="0px" y="0px"
	 viewBox="0 0 75 120" enable-background="new 0 0 75 120" xml:space="preserve">
<g id="Page-1_1_">
	<g id="Homepage-V11" transform="translate(-352.000000, -1746.000000)">
		<g id="Group-7" transform="translate(240.000000, 1720.000000)">
			<g id="Marketing">
				<g id="Illustrations_x2F_Marketing-Free" transform="translate(113.000000, 30.000000)">
					<g id="Page-1">
						<path id="Fill-1" fill="#FF8F52" fill-opacity="0.2" d="M41.34694,75.34694c-2.41935-1.38696-6.37746-1.38696-8.7958,0
							L2.51747,92.5674c-2.41935,1.38696-2.41935,3.65652,0,5.04347l30.03368,17.22045c2.41833,1.38696,6.37644,1.38696,8.7958,0
							l30.03368-17.22045c2.41833-1.38696,2.41833-3.65652,0-5.04347L41.34694,75.34694z"/>
						<path id="Stroke-3" fill="none" stroke="#33475C" stroke-width="5" d="M17.91833,61.30701
							c10.67785,6.12279,28.15162,6.12279,38.82948,0c10.67785-6.12278,10.67785-16.14115,0-22.26393s-28.15162-6.12278-38.82948,0
							S7.24048,55.18423,17.91833,61.30701z"/>
						<path id="Stroke-5" fill="none" stroke="#33475C" stroke-width="5" d="M17.91833,61.30701
							c10.67785,6.12279,28.15162,6.12279,38.82948,0c10.67785-6.12278,10.67785-16.14115,0-22.26393s-28.15162-6.12278-38.82948,0
							S7.24048,55.18423,17.91833,61.30701z"/>
						<path id="Stroke-7" fill="none" stroke="#33475C" stroke-width="5" d="M20.32052,59.08062
							c9.35645,4.89822,24.66784,4.89822,34.0253,0s9.35747-12.91332,0-17.81155s-24.66885-4.89823-34.0253,0
							S10.96407,54.18239,20.32052,59.08062z"/>
						<path id="Stroke-9" fill="none" stroke="#33475C" stroke-width="5" d="M20.32052,59.08062
							c9.35645,4.89822,24.66784,4.89822,34.0253,0s9.35747-12.91332,0-17.81155s-24.66885-4.89823-34.0253,0
							S10.96407,54.18239,20.32052,59.08062z"/>
						<path id="Stroke-11" fill="none" stroke="#33475C" stroke-width="5" d="M17.91844,61.30701
							c-0.70996-0.4065-1.36914-0.83217-1.98363-1.27095l-0.13001,0.05951l16.06604,17.36772h0.12188
							c0.24072,0.52553,0.69676,1.02584,1.41179,1.43537c2.16137,1.23868,5.69594,1.23868,7.85731,0
							c0.71504-0.41054,1.17108-0.90984,1.41281-1.43537h0.12086l16.06604-17.36772l-0.13-0.05951
							c-0.61449,0.43878-1.27366,0.86445-1.98362,1.27095C46.07006,67.42979,28.59629,67.42979,17.91844,61.30701z"/>
						<path id="Stroke-13" fill="none" stroke="#33475C" stroke-width="5" d="M42.7957,77.46278h-0.12188
							c-0.24072,0.52553-0.69676,1.02584-1.4118,1.43638c-2.16137,1.23868-5.69695,1.23868-7.85731,0
							c-0.71504-0.41054-1.17108-0.90984-1.41281-1.43638h-0.12087l-0.08633-0.0928v10.50254
							c0,0.81705,0.54034,1.63308,1.62001,2.25242c2.16035,1.23969,5.69594,1.23969,7.85731,0
							c1.07967-0.61934,1.62001-1.43537,1.62001-2.25242V77.36998L42.7957,77.46278z"/>
						<path id="Fill-15" fill="#FFFFFF" d="M17.91833,61.30701c10.67785,6.12279,28.15162,6.12279,38.82948,0
							c10.67785-6.12278,10.67785-16.14115,0-22.26393s-28.15162-6.12278-38.82948,0S7.24048,55.18423,17.91833,61.30701"/>
						<path id="Fill-17" fill="#E4EAEF" d="M17.91833,61.30701c10.67785,6.12279,28.15162,6.12279,38.82948,0
							c10.67785-6.12278,10.67785-16.14115,0-22.26393s-28.15162-6.12278-38.82948,0S7.24048,55.18423,17.91833,61.30701"/>
						<path id="Stroke-19" fill="none" stroke="#33475C" stroke-linecap="round" stroke-linejoin="round" d="M17.91833,61.30701
							c10.67785,6.12279,28.15162,6.12279,38.82948,0c10.67785-6.12278,10.67785-16.14115,0-22.26393s-28.15162-6.12278-38.82948,0
							S7.24048,55.18423,17.91833,61.30701z"/>
						<path id="Fill-21" fill="#CBD6E3" d="M20.32052,59.08062c9.35645,4.89822,24.66784,4.89822,34.0253,0
							s9.35747-12.91332,0-17.81155s-24.66885-4.89823-34.0253,0S10.96407,54.18239,20.32052,59.08062"/>
						<path id="Stroke-23" fill="none" stroke="#33475C" stroke-linecap="round" stroke-linejoin="round" d="M20.32052,59.08062
							c9.35645,4.89822,24.66784,4.89822,34.0253,0s9.35747-12.91332,0-17.81155s-24.66885-4.89823-34.0253,0
							S10.96407,54.18239,20.32052,59.08062z"/>
						<path id="Stroke-25" fill="none" stroke="#33475C" stroke-linecap="round" stroke-linejoin="round" d="M20.32052,59.08062
							c9.35645,4.89822,24.66784,4.89822,34.0253,0s9.35747-12.91332,0-17.81155s-24.66885-4.89823-34.0253,0
							S10.96407,54.18239,20.32052,59.08062z"/>
						<path id="Fill-27" fill="#9DB2C9" d="M17.91844,61.30701c-0.70996-0.4065-1.36914-0.83217-1.98363-1.27095l-0.13001,0.05951
							l16.06604,17.36772h0.12188c0.24072,0.52553,0.69676,1.02584,1.41179,1.43537c2.16137,1.23868,5.69594,1.23868,7.85731,0
							c0.71504-0.41054,1.17108-0.90984,1.41281-1.43537h0.12086l16.06604-17.36772l-0.13-0.05951
							c-0.61449,0.43878-1.27366,0.86445-1.98362,1.27095C46.07006,67.42979,28.59629,67.42979,17.91844,61.30701"/>
						<path id="Stroke-29" fill="none" stroke="#33475C" stroke-linecap="round" stroke-linejoin="round" d="M17.91844,61.30701
							c-0.70996-0.4065-1.36914-0.83217-1.98363-1.27095l-0.13001,0.05951l16.06604,17.36772h0.12188
							c0.24072,0.52553,0.69676,1.02584,1.41179,1.43537c2.16137,1.23868,5.69594,1.23868,7.85731,0
							c0.71504-0.41054,1.17108-0.90984,1.41281-1.43537h0.12086l16.06604-17.36772l-0.13-0.05951
							c-0.61449,0.43878-1.27366,0.86445-1.98362,1.27095C46.07006,67.42979,28.59629,67.42979,17.91844,61.30701z"/>
						<path id="Fill-31" fill="#CBD6E3" d="M42.7957,77.46278h-0.12188c-0.24072,0.52553-0.69676,1.02584-1.4118,1.43638
							c-2.16137,1.23868-5.69695,1.23868-7.85731,0c-0.71504-0.41054-1.17108-0.90984-1.41281-1.43638h-0.12087l-0.08633-0.0928
							v10.50254c0,0.81705,0.54034,1.63308,1.62001,2.25242c2.16035,1.23969,5.69594,1.23969,7.85731,0
							c1.07967-0.61934,1.62001-1.43537,1.62001-2.25242V77.36998L42.7957,77.46278z"/>
						<path id="Stroke-33" fill="none" stroke="#33475C" stroke-linecap="round" stroke-linejoin="round" d="M42.7957,77.46278
							h-0.12188c-0.24072,0.52553-0.69676,1.02584-1.4118,1.43638c-2.16137,1.23868-5.69695,1.23868-7.85731,0
							c-0.71504-0.41054-1.17108-0.90984-1.41281-1.43638h-0.12087l-0.08633-0.0928v10.50254
							c0,0.81705,0.54034,1.63308,1.62001,2.25242c2.16035,1.23969,5.69594,1.23969,7.85731,0
							c1.07967-0.61934,1.62001-1.43537,1.62001-2.25242V77.36998L42.7957,77.46278z"/>
						<path id="Stroke-35" fill="none" stroke="#FFFFFF" stroke-width="8" d="M43.13261,10.42921
							c0,5.75965-4.70158,10.4289-10.50112,10.4289s-10.50112-4.66925-10.50112-10.4289S26.83195,0.0003,32.63148,0.0003
							S43.13261,4.66955,43.13261,10.42921z"/>
						<path id="Stroke-37" fill="none" stroke="#FFFFFF" stroke-width="8" d="M20.4878,21.77623
							c0,4.78324-3.90428,8.66066-8.72063,8.66066s-8.71962-3.87743-8.71962-8.66066s3.90326-8.66066,8.71962-8.66066
							S20.4878,16.99299,20.4878,21.77623z"/>
						<path id="Stroke-39" fill="none" stroke="#FFFFFF" stroke-width="8" d="M57.45909,14.98619
							c0,3.06442-2.50162,5.54783-5.58624,5.54783c-3.08564,0-5.58726-2.48341-5.58726-5.54783s2.50162-5.54783,5.58726-5.54783
							C54.95747,9.43836,57.45909,11.92177,57.45909,14.98619z"/>
						<path id="Stroke-41" fill="none" stroke="#FFFFFF" stroke-width="8" d="M62.784,30.43991
							c0,3.61214-2.94852,6.53937-6.58466,6.53937c-3.63715,0-6.58567-2.92723-6.58567-6.53937s2.94852-6.53937,6.58567-6.53937
							C59.83548,23.90054,62.784,26.82777,62.784,30.43991z"/>
						<path id="Stroke-43" fill="none" stroke="#FFFFFF" stroke-width="8" d="M46.28589,31.29337
							c0,4.01562-3.2776,7.26967-7.32001,7.26967c-4.04342,0-7.32103-3.25406-7.32103-7.26967s3.2776-7.26967,7.32103-7.26967
							C43.00829,24.0237,46.28589,27.27775,46.28589,31.29337z"/>
						<path id="Stroke-45" fill="none" stroke="#FFFFFF" stroke-width="8" d="M28.6557,34.31401
							c0,2.91311-2.37771,5.27548-5.31201,5.27548c-2.93329,0-5.311-2.36237-5.311-5.27548s2.37771-5.27548,5.311-5.27548
							C26.278,29.03853,28.6557,31.4009,28.6557,34.31401z"/>
						<path id="Stroke-47" fill="none" stroke="#FFFFFF" stroke-width="8" d="M41.33231,48.42738
							c0,4.13868-3.37815,7.49259-7.54448,7.49259c-4.16734,0-7.54549-3.35391-7.54549-7.49259s3.37815-7.49259,7.54549-7.49259
							C37.95416,40.93479,41.33231,44.2887,41.33231,48.42738z"/>
						<path id="Stroke-49" fill="none" stroke="#FFFFFF" stroke-width="8" d="M52.94347,43.2568
							c0,2.42188-1.97652,4.38581-4.41618,4.38581c-2.43865,0-4.41516-1.96393-4.41516-4.38581
							c0-2.42188,1.97651-4.38581,4.41516-4.38581C50.96696,38.87099,52.94347,40.83493,52.94347,43.2568z"/>
						<path id="Fill-51" fill="#506E91" d="M43.13261,10.42921c0,5.75965-4.70158,10.4289-10.50112,10.4289
							s-10.50112-4.66925-10.50112-10.4289S26.83195,0.0003,32.63148,0.0003S43.13261,4.66955,43.13261,10.42921"/>
						<path id="Fill-53" fill="#6976D4" d="M20.4878,21.77623c0,4.78324-3.90428,8.66066-8.72063,8.66066
							s-8.71962-3.87743-8.71962-8.66066s3.90326-8.66066,8.71962-8.66066S20.4878,16.99299,20.4878,21.77623"/>
						<path id="Fill-55" fill="#BDEEE8" d="M57.45909,14.98619c0,3.06442-2.50162,5.54783-5.58624,5.54783
							c-3.08564,0-5.58726-2.48341-5.58726-5.54783s2.50162-5.54783,5.58726-5.54783
							C54.95747,9.43836,57.45909,11.92177,57.45909,14.98619"/>
						<path id="Fill-57" fill="#01A4BF" d="M62.784,30.43991c0,3.61214-2.94852,6.53937-6.58466,6.53937
							c-3.63715,0-6.58567-2.92723-6.58567-6.53937s2.94852-6.53937,6.58567-6.53937
							C59.83548,23.90054,62.784,26.82777,62.784,30.43991"/>
						<path id="Fill-59" fill="#FF7A52" d="M46.28589,31.29337c0,4.01562-3.2776,7.26967-7.32001,7.26967
							c-4.04342,0-7.32103-3.25406-7.32103-7.26967s3.2776-7.26967,7.32103-7.26967
							C43.00829,24.0237,46.28589,27.27775,46.28589,31.29337"/>
						<path id="Fill-61" fill="#D9DCF4" d="M28.6557,34.31401c0,2.91311-2.37771,5.27548-5.31201,5.27548
							c-2.93329,0-5.311-2.36237-5.311-5.27548s2.37771-5.27548,5.311-5.27548C26.278,29.03853,28.6557,31.4009,28.6557,34.31401"/>
						<path id="Fill-63" fill="#40CEBB" d="M41.33231,48.42738c0,4.13868-3.37815,7.49259-7.54448,7.49259
							c-4.16734,0-7.54549-3.35391-7.54549-7.49259s3.37815-7.49259,7.54549-7.49259
							C37.95416,40.93479,41.33231,44.2887,41.33231,48.42738"/>
						<path id="Fill-65" fill="#BDE8EF" d="M52.94347,43.2568c0,2.42188-1.97652,4.38581-4.41618,4.38581
							c-2.43865,0-4.41516-1.96393-4.41516-4.38581c0-2.42188,1.97651-4.38581,4.41516-4.38581
							C50.96696,38.87099,52.94347,40.83493,52.94347,43.2568"/>
					</g>
				</g>
			</g>
		</g>
	</g>
</g>
</svg>
